<svg xmlns="http://www.w3.org/2000/svg" aria-hidden="true" style="position:absolute;width:0;height:0;overflow:hidden">
  <defs>
    <symbol id="star" viewBox="0 0 34 32">
      <path d="M15.421 1.037c.584-1.383 2.575-1.383 3.159 0l3.449 8.164c.247.583.804.982 1.443 1.032l8.952.707c1.517.12 2.132 1.983.976 2.958l-6.821 5.752c-.487.411-.7 1.056-.551 1.67l2.084 8.6c.353 1.457-1.257 2.609-2.556 1.828l-7.664-4.609c-.547-.329-1.236-.329-1.783 0l-7.664 4.609c-1.299.781-2.909-.371-2.556-1.828l2.084-8.6c.149-.614-.064-1.259-.551-1.67L.601 13.898c-1.156-.975-.541-2.838.976-2.958l8.952-.707c.639-.05 1.196-.449 1.443-1.032l3.449-8.164z"/>
    </symbol>
  </defs>
</svg>