<svg width="17" height="16" viewBox="0 0 17 16" fill="none" xmlns="http://www.w3.org/2000/svg">
<path d="M7.71026 0.51869C8.00245 -0.172898 8.99759 -0.172897 9.28978 0.518692L11.0142 4.60057C11.1375 4.89213 11.416 5.09134 11.7357 5.11657L16.2118 5.46986C16.9702 5.52972 17.2777 6.46147 16.6999 6.94875L13.2896 9.82474C13.046 10.0302 12.9396 10.3526 13.014 10.6597L14.0559 14.9599C14.2324 15.6885 13.4274 16.2644 12.7781 15.874L8.94588 13.5695C8.67215 13.4049 8.3279 13.4049 8.05418 13.5695L4.22195 15.874C3.57265 16.2644 2.76757 15.6885 2.9441 14.9599L3.98602 10.6597C4.06044 10.3526 3.95406 10.0302 3.71048 9.82474L0.300104 6.94875C-0.277711 6.46147 0.0298078 5.52972 0.788199 5.46986L5.26436 5.11657C5.58409 5.09134 5.8626 4.89213 5.98577 4.60057L7.71026 0.51869Z" fill="#FFE550"/>
</svg>
