<svg width="22" height="29" viewBox="0 0 22 29" fill="none" xmlns="http://www.w3.org/2000/svg">
<path d="M10.5 0.333313C12.5222 0.333313 14.25 1.03887 15.6833 2.44998C17.1167 3.86109 17.8333 5.57776 17.8333 7.59998C17.8333 8.75554 17.5833 9.84442 17.0833 10.8666C16.5833 11.8889 15.8778 12.7555 14.9667 13.4666H13.8333V11.8C14.4778 11.2889 14.9722 10.6666 15.3167 9.93331C15.6611 9.19998 15.8333 8.4222 15.8333 7.59998C15.8333 6.13331 15.3111 4.88887 14.2667 3.86665C13.2222 2.84442 11.9667 2.33331 10.5 2.33331C9.03335 2.33331 7.77779 2.84442 6.73335 3.86665C5.68891 4.88887 5.16668 6.13331 5.16668 7.59998C5.16668 8.4222 5.3389 9.19998 5.68335 9.93331C6.02779 10.6666 6.52224 11.2889 7.16668 11.8V14.2C5.92224 13.5555 4.94446 12.6444 4.23335 11.4666C3.52224 10.2889 3.16668 8.99998 3.16668 7.59998C3.16668 5.57776 3.88335 3.86109 5.31668 2.44998C6.75002 1.03887 8.47779 0.333313 10.5 0.333313ZM9.23335 28.3333C8.85557 28.3333 8.50002 28.2611 8.16668 28.1166C7.83335 27.9722 7.54446 27.7778 7.30002 27.5333L0.43335 20.6666L2.30002 18.7333C2.61113 18.4222 2.96113 18.1833 3.35002 18.0166C3.7389 17.85 4.14446 17.8222 4.56668 17.9333L7.16668 18.5333V7.66665C7.16668 6.73331 7.48891 5.94442 8.13335 5.29998C8.77779 4.65554 9.56668 4.33331 10.5 4.33331C11.4333 4.33331 12.2222 4.65554 12.8667 5.29998C13.5111 5.94442 13.8333 6.73331 13.8333 7.66665V13.4H14.7C14.8111 13.4 14.9111 13.4222 15 13.4666C15.0889 13.5111 15.1889 13.5555 15.3 13.6L20.2333 16C20.7667 16.2444 21.1611 16.6389 21.4167 17.1833C21.6722 17.7278 21.7445 18.2889 21.6333 18.8666L20.4333 26.1333C20.3222 26.7778 20.0111 27.3055 19.5 27.7166C18.9889 28.1278 18.4111 28.3333 17.7667 28.3333H9.23335ZM8.96668 26.3333H18.3333L19.7667 18.0333L13.6667 15H11.8333V7.66665C11.8333 7.26665 11.7111 6.94442 11.4667 6.69998C11.2222 6.45554 10.9 6.33331 10.5 6.33331C10.1 6.33331 9.77779 6.45554 9.53335 6.69998C9.2889 6.94442 9.16668 7.26665 9.16668 7.66665V20.9666L4.03335 19.8666L3.26668 20.6333L8.96668 26.3333ZM18.3333 26.3333H8.96668H18.3333Z" fill="#7EB101"/>
</svg>
